<?xml version="1.0" encoding="utf-8"?>
<!-- Generator: Adobe Illustrator 19.2.1, SVG Export Plug-In . SVG Version: 6.00 Build 0)  -->
<svg version="1.1" id="Layer_1" xmlns="http://www.w3.org/2000/svg" xmlns:xlink="http://www.w3.org/1999/xlink" x="0px" y="0px"
	 viewBox="0 0 1400 980" style="enable-background:new 0 0 1400 980;" xml:space="preserve">
<style type="text/css">
	.st0{fill:#7FCCC9;}
	.st1{fill:#93D4D0;}
	.st2{fill:#ADDEDC;}
	.st3{fill:#4C5860;}
	.st4{fill:#3E4A54;}
	.st5{fill:#88D0EC;}
	.st6{fill:#74B9E0;}
	.st7{fill:#2CB3CD;}
	.st8{fill:#2376BB;}
	.st9{fill:#7796A0;}
	.st10{fill:#5F8087;}
	.st11{fill:#485C66;}
	.st12{fill:#5B6571;}
	.st13{fill:#51A39D;}
	.st14{fill:#F7C292;}
	.st15{fill:#4FAA4E;}
	.st16{fill:#5FBC62;}
	.st17{fill:#E5AE80;}
	.st18{fill:#9A5C58;}
	.st19{fill:#3E4C5E;}
	.st20{fill:#F5F9E9;}
	.st21{fill:#BFCED8;}
	.st22{fill:#E5E1D6;}
	.st23{fill:#CFE0EE;}
	.st24{fill:#F5F2EA;}
	.st25{fill:#E5AC7C;}
	.st26{fill:#F8F7F0;}
	.st27{fill:#AABBCF;}
	.st28{fill:#E8E6DD;}
	.st29{fill:#432155;}
	.st30{fill:#C9DC53;}
	.st31{fill:#DD527E;}
	.st32{fill:#EA676B;}
	.st33{fill:#0F223A;}
	.st34{fill:#8A1E1C;}
	.st35{fill:#FFFFFF;}
	.st36{fill:#F04D28;}
	.st37{fill:#E5A46E;}
	.st38{fill:#203E51;}
	.st39{fill:#D4D2C9;}
	.st40{fill:#B73664;}
	.st41{fill:#972251;}
	.st42{fill:#9CB23B;}
	.st43{fill:#F5F6E8;}
	.st44{fill:#5B676D;}
</style>
<rect class="st0" width="1400" height="980"/>
<g>
	<g>
		<rect x="755.7" y="208.3" class="st1" width="241.4" height="279"/>
		<g>
			<path class="st2" d="M911.2,261.2c-3.2-1.9-7.4-0.8-9.2,2.5l-48.2,83.6c-1.9,3.2-0.8,7.4,2.5,9.2c3.2,1.9,7.4,0.8,9.2-2.5
				l48.2-83.6C915.5,267.2,914.4,263.1,911.2,261.2z"/>
			<path class="st2" d="M948.9,262c-3.2-1.9-7.4-0.8-9.2,2.5l-48.9,84.7c-1.9,3.2-0.8,7.4,2.5,9.2c3.2,1.9,7.4,0.8,9.2-2.5
				l48.9-84.7C953.2,268,952.1,263.9,948.9,262z"/>
			<path class="st2" d="M930.7,227.5c-3.2-1.9-7.4-0.8-9.2,2.5l-9,15.5c-1.9,3.2-0.8,7.4,2.5,9.2c3.2,1.9,7.4,0.8,9.2-2.5l9-15.5
				C935,233.5,933.9,229.4,930.7,227.5z"/>
		</g>
	</g>
	<g>
		<rect x="493.1" y="208.3" class="st1" width="241.4" height="279"/>
		<g>
			<path class="st2" d="M648.6,261.2c-3.2-1.9-7.4-0.8-9.2,2.5l-48.2,83.6c-1.9,3.2-0.8,7.4,2.5,9.2c3.2,1.9,7.4,0.8,9.2-2.5
				l48.2-83.6C652.9,267.2,651.8,263.1,648.6,261.2z"/>
			<path class="st2" d="M686.3,262c-3.2-1.9-7.4-0.8-9.2,2.5l-48.9,84.7c-1.9,3.2-0.8,7.4,2.5,9.2c3.2,1.9,7.4,0.8,9.2-2.5
				l48.9-84.7C690.6,268,689.5,263.9,686.3,262z"/>
			<path class="st2" d="M668.1,227.5c-3.2-1.9-7.4-0.8-9.2,2.5l-9,15.5c-1.9,3.2-0.8,7.4,2.5,9.2c3.2,1.9,7.4,0.8,9.2-2.5l9-15.5
				C672.4,233.5,671.3,229.4,668.1,227.5z"/>
		</g>
	</g>
	<g>
		<rect x="230.6" y="208.3" class="st1" width="241.4" height="279"/>
		<g>
			<path class="st2" d="M386,261.2c-3.2-1.9-7.4-0.8-9.2,2.5l-48.2,83.6c-1.9,3.2-0.8,7.4,2.5,9.2c3.2,1.9,7.4,0.8,9.2-2.5
				l48.2-83.6C390.3,267.2,389.2,263.1,386,261.2z"/>
			<path class="st2" d="M423.7,262c-3.2-1.9-7.4-0.8-9.2,2.5l-48.9,84.7c-1.9,3.2-0.8,7.4,2.5,9.2c3.2,1.9,7.4,0.8,9.2-2.5
				l48.9-84.7C428,268,426.9,263.9,423.7,262z"/>
			<path class="st2" d="M405.5,227.5c-3.2-1.9-7.4-0.8-9.2,2.5l-9,15.5c-1.9,3.2-0.8,7.4,2.5,9.2c3.2,1.9,7.4,0.8,9.2-2.5l9-15.5
				C409.8,233.5,408.7,229.4,405.5,227.5z"/>
		</g>
	</g>
</g>
<g>
	<rect x="1046.2" y="307.5" class="st2" width="123.3" height="148.4"/>
	<rect x="1046.2" y="307.5" class="st1" width="123.3" height="43"/>
	<g>
		<g>
			<path class="st1" d="M1133.7,388c-0.6,0-1.1-0.2-1.6-0.7l-8-8c-0.9-0.9-0.9-2.3,0-3.2s2.3-0.9,3.2,0l8,8c0.9,0.9,0.9,2.3,0,3.2
				C1134.8,387.8,1134.2,388,1133.7,388z"/>
			<path class="st1" d="M1125.6,388c-0.6,0-1.1-0.2-1.6-0.7c-0.9-0.9-0.9-2.3,0-3.2l8-8c0.9-0.9,2.3-0.9,3.2,0s0.9,2.3,0,3.2l-8,8
				C1126.8,387.8,1126.2,388,1125.6,388z"/>
		</g>
		<g>
			<path class="st1" d="M1155.5,388c-0.6,0-1.1-0.2-1.6-0.7l-8-8c-0.9-0.9-0.9-2.3,0-3.2s2.3-0.9,3.2,0l8,8c0.9,0.9,0.9,2.3,0,3.2
				C1156.6,387.8,1156.1,388,1155.5,388z"/>
			<path class="st1" d="M1147.5,388c-0.6,0-1.1-0.2-1.6-0.7c-0.9-0.9-0.9-2.3,0-3.2l8-8c0.9-0.9,2.3-0.9,3.2,0s0.9,2.3,0,3.2l-8,8
				C1148.6,387.8,1148.1,388,1147.5,388z"/>
		</g>
		<g>
			<path class="st1" d="M1068.1,410c-0.6,0-1.1-0.2-1.6-0.7l-8-8c-0.9-0.9-0.9-2.3,0-3.2s2.3-0.9,3.2,0l8,8c0.9,0.9,0.9,2.3,0,3.2
				C1069.3,409.8,1068.7,410,1068.1,410z"/>
			<path class="st1" d="M1060.1,410c-0.6,0-1.1-0.2-1.6-0.7c-0.9-0.9-0.9-2.3,0-3.2l8-8c0.9-0.9,2.3-0.9,3.2,0s0.9,2.3,0,3.2l-8,8
				C1061.2,409.8,1060.7,410,1060.1,410z"/>
		</g>
		<g>
			<path class="st1" d="M1090,410c-0.6,0-1.1-0.2-1.6-0.7l-8-8c-0.9-0.9-0.9-2.3,0-3.2s2.3-0.9,3.2,0l8,8c0.9,0.9,0.9,2.3,0,3.2
				C1091.1,409.8,1090.5,410,1090,410z"/>
			<path class="st1" d="M1081.9,410c-0.6,0-1.1-0.2-1.6-0.7c-0.9-0.9-0.9-2.3,0-3.2l8-8c0.9-0.9,2.3-0.9,3.2,0s0.9,2.3,0,3.2l-8,8
				C1083.1,409.8,1082.5,410,1081.9,410z"/>
		</g>
		<g>
			<path class="st1" d="M1111.8,410c-0.6,0-1.1-0.2-1.6-0.7l-8-8c-0.9-0.9-0.9-2.3,0-3.2s2.3-0.9,3.2,0l8,8c0.9,0.9,0.9,2.3,0,3.2
				C1113,409.8,1112.4,410,1111.8,410z"/>
			<path class="st1" d="M1103.8,410c-0.6,0-1.1-0.2-1.6-0.7c-0.9-0.9-0.9-2.3,0-3.2l8-8c0.9-0.9,2.3-0.9,3.2,0s0.9,2.3,0,3.2l-8,8
				C1104.9,409.8,1104.4,410,1103.8,410z"/>
		</g>
		<g>
			<path class="st1" d="M1133.7,410c-0.6,0-1.1-0.2-1.6-0.7l-8-8c-0.9-0.9-0.9-2.3,0-3.2s2.3-0.9,3.2,0l8,8c0.9,0.9,0.9,2.3,0,3.2
				C1134.8,409.8,1134.2,410,1133.7,410z"/>
			<path class="st1" d="M1125.6,410c-0.6,0-1.1-0.2-1.6-0.7c-0.9-0.9-0.9-2.3,0-3.2l8-8c0.9-0.9,2.3-0.9,3.2,0s0.9,2.3,0,3.2l-8,8
				C1126.8,409.8,1126.2,410,1125.6,410z"/>
		</g>
		<g>
			<path class="st1" d="M1155.5,410c-0.6,0-1.1-0.2-1.6-0.7l-8-8c-0.9-0.9-0.9-2.3,0-3.2s2.3-0.9,3.2,0l8,8c0.9,0.9,0.9,2.3,0,3.2
				C1156.6,409.8,1156.1,410,1155.5,410z"/>
			<path class="st1" d="M1147.5,410c-0.6,0-1.1-0.2-1.6-0.7c-0.9-0.9-0.9-2.3,0-3.2l8-8c0.9-0.9,2.3-0.9,3.2,0s0.9,2.3,0,3.2l-8,8
				C1148.6,409.8,1148.1,410,1147.5,410z"/>
		</g>
		<g>
			<path class="st1" d="M1068.1,432c-0.6,0-1.1-0.2-1.6-0.7l-8-8c-0.9-0.9-0.9-2.3,0-3.2s2.3-0.9,3.2,0l8,8c0.9,0.9,0.9,2.3,0,3.2
				C1069.3,431.8,1068.7,432,1068.1,432z"/>
			<path class="st1" d="M1060.1,432c-0.6,0-1.1-0.2-1.6-0.7c-0.9-0.9-0.9-2.3,0-3.2l8-8c0.9-0.9,2.3-0.9,3.2,0s0.9,2.3,0,3.2l-8,8
				C1061.2,431.8,1060.7,432,1060.1,432z"/>
		</g>
		<g>
			<path class="st1" d="M1090,432c-0.6,0-1.1-0.2-1.6-0.7l-8-8c-0.9-0.9-0.9-2.3,0-3.2s2.3-0.9,3.2,0l8,8c0.9,0.9,0.9,2.3,0,3.2
				C1091.1,431.8,1090.5,432,1090,432z"/>
			<path class="st1" d="M1081.9,432c-0.6,0-1.1-0.2-1.6-0.7c-0.9-0.9-0.9-2.3,0-3.2l8-8c0.9-0.9,2.3-0.9,3.2,0s0.9,2.3,0,3.2l-8,8
				C1083.1,431.8,1082.5,432,1081.9,432z"/>
		</g>
		<g>
			<path class="st1" d="M1111.8,432c-0.6,0-1.1-0.2-1.6-0.7l-8-8c-0.9-0.9-0.9-2.3,0-3.2s2.3-0.9,3.2,0l8,8c0.9,0.9,0.9,2.3,0,3.2
				C1113,431.8,1112.4,432,1111.8,432z"/>
			<path class="st1" d="M1103.8,432c-0.6,0-1.1-0.2-1.6-0.7c-0.9-0.9-0.9-2.3,0-3.2l8-8c0.9-0.9,2.3-0.9,3.2,0s0.9,2.3,0,3.2l-8,8
				C1104.9,431.8,1104.4,432,1103.8,432z"/>
		</g>
		<g>
			<path class="st1" d="M1133.7,432c-0.6,0-1.1-0.2-1.6-0.7l-8-8c-0.9-0.9-0.9-2.3,0-3.2s2.3-0.9,3.2,0l8,8c0.9,0.9,0.9,2.3,0,3.2
				C1134.8,431.8,1134.2,432,1133.7,432z"/>
			<path class="st1" d="M1125.6,432c-0.6,0-1.1-0.2-1.6-0.7c-0.9-0.9-0.9-2.3,0-3.2l8-8c0.9-0.9,2.3-0.9,3.2,0s0.9,2.3,0,3.2l-8,8
				C1126.8,431.8,1126.2,432,1125.6,432z"/>
		</g>
		<g>
			<path class="st1" d="M1155.5,432c-0.6,0-1.1-0.2-1.6-0.7l-8-8c-0.9-0.9-0.9-2.3,0-3.2s2.3-0.9,3.2,0l8,8c0.9,0.9,0.9,2.3,0,3.2
				C1156.6,431.8,1156.1,432,1155.5,432z"/>
			<path class="st1" d="M1147.5,432c-0.6,0-1.1-0.2-1.6-0.7c-0.9-0.9-0.9-2.3,0-3.2l8-8c0.9-0.9,2.3-0.9,3.2,0s0.9,2.3,0,3.2l-8,8
				C1148.6,431.8,1148.1,432,1147.5,432z"/>
		</g>
		<path class="st1" d="M1106.2,387.1c-0.6,0-1.1-0.2-1.6-0.7l-3-3c-0.9-0.9-0.9-2.3,0-3.2s2.3-0.9,3.2,0l1.4,1.4l4.6-4.6
			c0.9-0.9,2.3-0.9,3.2,0s0.9,2.3,0,3.2l-6.2,6.2C1107.3,386.9,1106.8,387.1,1106.2,387.1z"/>
		<path class="st1" d="M1084.3,387.1c-0.6,0-1.1-0.2-1.6-0.7l-3-3c-0.9-0.9-0.9-2.3,0-3.2s2.3-0.9,3.2,0l1.4,1.4l4.6-4.6
			c0.9-0.9,2.3-0.9,3.2,0s0.9,2.3,0,3.2l-6.2,6.2C1085.5,386.9,1084.9,387.1,1084.3,387.1z"/>
		<path class="st1" d="M1062.5,387.1c-0.6,0-1.1-0.2-1.6-0.7l-3-3c-0.9-0.9-0.9-2.3,0-3.2s2.3-0.9,3.2,0l1.4,1.4l4.6-4.6
			c0.9-0.9,2.3-0.9,3.2,0s0.9,2.3,0,3.2l-6.2,6.2C1063.6,386.9,1063.1,387.1,1062.5,387.1z"/>
	</g>
</g>
<g>
	<path class="st3" d="M462.7,812.2L462.7,812.2c-1.9,0-3.6-1.1-4.4-2.7l-26.7-53.9c-1.9-3.8-1.6-8.1,0.6-11.7
		c2.2-3.6,6-5.7,10.2-5.7H483c4.2,0,8,2.1,10.2,5.7c2.2,3.6,2.4,7.9,0.6,11.7l-26.7,53.9C466.3,811.1,464.6,812.2,462.7,812.2z
		 M442.5,748c-1.1,0-1.6,0.7-1.9,1c-0.2,0.4-0.6,1.2-0.1,2.1l22.2,45l22.2-45c0.5-1,0.1-1.7-0.1-2.1c-0.2-0.4-0.8-1-1.9-1H442.5z"/>
	<g>
		<circle class="st4" cx="462.7" cy="801.2" r="38.4"/>
		<path class="st3" d="M471.8,810.8h-18.1c-3.8,0-6.9-3.1-6.9-6.9v-5.4c0-3.8,3.1-6.9,6.9-6.9h18.1c3.8,0,6.9,3.1,6.9,6.9v5.4
			C478.7,807.7,475.6,810.8,471.8,810.8z"/>
	</g>
</g>
<g>
	<ellipse transform="matrix(0.5 -0.866 0.866 0.5 -131.4116 1181.0887)" class="st5" cx="957.1" cy="704.4" rx="138.7" ry="138.7"/>
	<g>
		<path class="st5" d="M1093.7,680.2C1026.4,656.5,964,620.5,909.9,574c37.1-13.5,79.7-11,116.6,10.3
			C1063.4,605.6,1086.8,641.3,1093.7,680.2z"/>
		<path class="st6" d="M1085,758.1c-89.4-25.9-171.2-73.2-238.3-137.7c16.5-21.8,38.6-37.6,63.1-46.4l0,0
			c54.1,46.5,116.5,82.6,183.9,106.2C1098.3,705.8,1095.7,732.9,1085,758.1z"/>
		<path class="st5" d="M1077.3,773.7c-11.7,20.2-27.7,36.4-46.2,48c-78.9-25.2-151.4-67.1-212.6-122.8l0,0
			c0.8-21.8,6.8-43.7,18.5-63.9c3-5.1,6.2-10,9.7-14.6c67.1,64.5,148.9,111.8,238.3,137.7C1082.8,763.4,1080.2,768.6,1077.3,773.7z"
			/>
		<path class="st6" d="M1031.1,821.7c-42.1,26.5-97.2,29.4-143.3,2.7c-46.2-26.6-71.2-75.8-69.3-125.6
			C879.7,754.7,952.2,796.6,1031.1,821.7z"/>
	</g>
</g>
<g>
	<g>
		<path class="st7" d="M385.2,839.6L385.2,839.6c-6,0-10.8-4.8-10.8-10.8V697.5h35l-13.4,132.4C395.4,835.4,390.7,839.6,385.2,839.6
			z"/>
		<path class="st7" d="M796.5,839.6L796.5,839.6c6,0,10.8-4.8,10.8-10.8V697.5h-35l13.4,132.4C786.3,835.4,790.9,839.6,796.5,839.6z
			"/>
	</g>
	<path class="st8" d="M341.3,673.9V691c0,3.6,2.9,6.5,6.5,6.5h486.1c3.6,0,6.5-2.9,6.5-6.5v-17.1c0-3.6-2.9-6.5-6.5-6.5H347.8
		C344.2,667.4,341.3,670.3,341.3,673.9z"/>
</g>
<g>
	<rect x="822.7" y="781.6" class="st9" width="236.3" height="13"/>
	<rect x="822.7" y="781.6" class="st10" width="18.5" height="13"/>
	<g>
		<path class="st11" d="M773.8,775c-1.5,0-2.6,1.2-2.6,2.6v20.9c0,1.5,1.2,2.6,2.6,2.6c1.5,0,2.6-1.2,2.6-2.6v-20.9
			C776.4,776.2,775.2,775,773.8,775z"/>
		<g>
			<path class="st4" d="M837.1,736.6v103h-24.3c-0.3,0-0.6,0-0.9,0c-5.5-0.5-9.8-5.1-9.8-10.7v-81.5c0-5.6,4.3-10.2,9.8-10.7
				c0.3,0,0.6,0,0.9,0H837.1z"/>
			<path class="st11" d="M811.8,736.6v103c-5.5-0.5-9.8-5.1-9.8-10.7v-81.5C802,741.7,806.3,737.1,811.8,736.6z"/>
		</g>
		<g>
			<path class="st4" d="M802,746.8v82.7h-14.4c-0.3,0-0.5,0-0.8,0c-4.4-0.4-7.9-4.1-7.9-8.6v-65.4c0-4.5,3.5-8.2,7.9-8.6
				c0.2,0,0.5,0,0.8,0H802z"/>
			<path class="st11" d="M786.8,746.8v82.6c-4.4-0.4-7.9-4.1-7.9-8.6v-65.4C779,750.9,782.4,747.2,786.8,746.8z"/>
		</g>
		<rect x="756.3" y="781.6" class="st9" width="22.7" height="13"/>
		<g>
			<path class="st12" d="M831.3,771.4L831.3,771.4c-1.3,0-2.3-1-2.3-2.3v-25.9c0-1.3,1-2.3,2.3-2.3l0,0c1.3,0,2.3,1,2.3,2.3v25.9
				C833.5,770.4,832.5,771.4,831.3,771.4z"/>
			<path class="st12" d="M831.3,782.9L831.3,782.9c-1.3,0-2.3-1-2.3-2.3v-3.7c0-1.3,1-2.3,2.3-2.3l0,0c1.3,0,2.3,1,2.3,2.3v3.7
				C833.5,781.9,832.5,782.9,831.3,782.9z"/>
		</g>
		<g>
			<path class="st12" d="M797.6,777L797.6,777c-1.1,0-2-0.9-2-2v-23.3c0-1.1,0.9-2,2-2l0,0c1.1,0,2,0.9,2,2V775
				C799.7,776.1,798.8,777,797.6,777z"/>
			<path class="st12" d="M797.6,787.3L797.6,787.3c-1.1,0-2-0.9-2-2V782c0-1.1,0.9-2,2-2l0,0c1.1,0,2,0.9,2,2v3.3
				C799.7,786.4,798.8,787.3,797.6,787.3z"/>
		</g>
	</g>
	<g>
		<path class="st11" d="M1107.2,775c1.5,0,2.6,1.2,2.6,2.6v20.9c0,1.5-1.2,2.6-2.6,2.6c-1.5,0-2.6-1.2-2.6-2.6v-20.9
			C1104.5,776.2,1105.7,775,1107.2,775z"/>
		<g>
			<path class="st4" d="M1043.9,736.6v103h24.3c0.3,0,0.6,0,0.9,0c5.5-0.5,9.8-5.1,9.8-10.7v-81.5c0-5.6-4.3-10.2-9.8-10.7
				c-0.3,0-0.6,0-0.9,0H1043.9z"/>
			<path class="st11" d="M1069.2,736.6v103c5.5-0.5,9.8-5.1,9.8-10.7v-81.5C1079,741.7,1074.7,737.1,1069.2,736.6z"/>
		</g>
		<g>
			<path class="st4" d="M1079,746.8v82.7h14.4c0.3,0,0.5,0,0.8,0c4.4-0.4,7.9-4.1,7.9-8.6v-65.4c0-4.5-3.5-8.2-7.9-8.6
				c-0.2,0-0.5,0-0.8,0H1079z"/>
			<path class="st11" d="M1094.1,746.8v82.6c4.4-0.4,7.9-4.1,7.9-8.6v-65.4C1102,750.9,1098.5,747.2,1094.1,746.8z"/>
		</g>
		<rect x="1102" y="781.6" class="st9" width="22.7" height="13"/>
		<g>
			<path class="st12" d="M1049.7,771.4L1049.7,771.4c1.3,0,2.3-1,2.3-2.3v-25.9c0-1.3-1-2.3-2.3-2.3l0,0c-1.3,0-2.3,1-2.3,2.3v25.9
				C1047.4,770.4,1048.4,771.4,1049.7,771.4z"/>
			<path class="st12" d="M1049.7,782.9L1049.7,782.9c1.3,0,2.3-1,2.3-2.3v-3.7c0-1.3-1-2.3-2.3-2.3l0,0c-1.3,0-2.3,1-2.3,2.3v3.7
				C1047.4,781.9,1048.4,782.9,1049.7,782.9z"/>
		</g>
		<g>
			<path class="st12" d="M1083.3,777L1083.3,777c1.1,0,2-0.9,2-2v-23.3c0-1.1-0.9-2-2-2l0,0c-1.1,0-2,0.9-2,2V775
				C1081.3,776.1,1082.2,777,1083.3,777z"/>
			<path class="st12" d="M1083.3,787.3L1083.3,787.3c1.1,0,2-0.9,2-2V782c0-1.1-0.9-2-2-2l0,0c-1.1,0-2,0.9-2,2v3.3
				C1081.3,786.4,1082.2,787.3,1083.3,787.3z"/>
		</g>
	</g>
</g>
<path class="st13" d="M206,853.1L206,853.1c0,7.4,6,13.3,13.3,13.3h961.4c7.4,0,13.3-6,13.3-13.3v0c0-7.4-6-13.3-13.3-13.3H219.3
	C211.9,839.7,206,845.7,206,853.1z"/>
<g>
	<g>
		<path class="st14" d="M831.7,409.9v162c0,12.7-10.3,23-23,23c-12.7,0-23-10.3-23-23v-162c0-12.7,10.3-23,23-23
			C821.4,386.8,831.7,397.1,831.7,409.9z"/>
		<path class="st15" d="M831.7,409.9v51.5h-46v-51.5c0-12.7,10.3-23,23-23C821.4,386.8,831.7,397.1,831.7,409.9z"/>
		<path class="st14" d="M614.4,409.9v137.3c0,12.7-10.3,23-23,23c-12.7,0-23-10.3-23-23V409.9c0-12.7,10.3-23,23-23
			C604.1,386.8,614.4,397.1,614.4,409.9z"/>
		<path class="st15" d="M614.4,409.9v51.5h-46v-51.5c0-12.7,10.3-23,23-23C604.1,386.8,614.4,397.1,614.4,409.9z"/>
		<path class="st16" d="M751.3,381.7H648.7c-25.8,0-46.7,20.9-46.7,46.7v30.3c0,25.8,20.9,46.7,46.7,46.7h102.7
			c25.8,0,46.7-20.9,46.7-46.7v-30.3C798.1,402.6,777.2,381.7,751.3,381.7z"/>
		<circle class="st16" cx="700" cy="440.7" r="80.4"/>
		<path class="st17" d="M667.1,342.6V380c0,18.2,14.7,32.9,32.9,32.9h0c18.2,0,32.9-14.7,32.9-32.9v-37.4H667.1z"/>
		<path class="st16" d="M768.3,449.8V554c0,34.5-28,62.6-62.6,62.6h-11.4c-34.6,0-62.6-28-62.6-62.6V449.8H768.3z"/>
		<g>
			<path class="st18" d="M768.3,543.3V554c0,34.5-28,62.6-62.6,62.6h-11.4c-34.6,0-62.6-28-62.6-62.6v-10.7H768.3z"/>
			<rect x="631.7" y="543.3" class="st19" width="136.6" height="10.7"/>
			<rect x="688.5" y="541.3" class="st20" width="22.9" height="14.8"/>
			<g>
				<g>
					<rect x="722.2" y="543.3" class="st18" width="6.8" height="16.1"/>
					<rect x="749.4" y="543.3" class="st18" width="6.8" height="16.1"/>
				</g>
				<g>
					<rect x="643.8" y="543.3" class="st18" width="6.8" height="16.1"/>
					<rect x="671" y="543.3" class="st18" width="6.8" height="16.1"/>
				</g>
			</g>
		</g>
		<g>
			<g>
				<rect x="715.3" y="608.8" class="st14" width="33.4" height="190.1"/>
				<rect x="707.8" y="571.2" class="st18" width="48.5" height="103.2"/>
				<circle class="st14" cx="740.3" cy="707.7" r="12.3"/>
				<g>
					<path class="st21" d="M752.1,801.8v37.8h-35.5c-2.6,0-4.7-2.1-4.7-4.7v-33.1c0-1.6,1.3-3,3-3h34.3
						C750.8,798.8,752.1,800.2,752.1,801.8z"/>
					<path class="st22" d="M725.8,829.1v10.5h-9.2c-2.6,0-4.7-2.1-4.7-4.7v-5.8H725.8z"/>
					<g>
						<path class="st23" d="M768.3,839.6H718v-14.1c0-11.5,9.3-20.8,20.8-20.8h8.8c11.5,0,20.8,9.3,20.8,20.8V839.6z"/>
						<rect x="718" y="829.1" class="st24" width="50.4" height="10.5"/>
					</g>
				</g>
			</g>
			<g>
				<rect x="651.3" y="608.8" class="st14" width="33.4" height="190.1"/>
				<rect x="643.7" y="571.2" class="st18" width="48.5" height="103.2"/>
				<circle class="st14" cx="659.7" cy="707.7" r="12.3"/>
				<g>
					<path class="st21" d="M647.9,801.8v37.8h35.5c2.6,0,4.7-2.1,4.7-4.7v-33.1c0-1.6-1.3-3-3-3h-34.3
						C649.2,798.8,647.9,800.2,647.9,801.8z"/>
					<path class="st22" d="M674.2,829.1v10.5h9.2c2.6,0,4.7-2.1,4.7-4.7v-5.8H674.2z"/>
					<g>
						<path class="st23" d="M631.7,839.6H682v-14.1c0-11.5-9.3-20.8-20.8-20.8h-8.8c-11.5,0-20.8,9.3-20.8,20.8V839.6z"/>
						<rect x="631.7" y="829.1" class="st24" width="50.4" height="10.5"/>
					</g>
				</g>
			</g>
		</g>
		<path class="st14" d="M818.4,629L818.4,629c-7.3,0-13.3-5.9-13.3-13.3v-41.9c0-7.3,5.9-13.3,13.3-13.3l0,0
			c7.3,0,13.3,5.9,13.3,13.3v41.9C831.7,623.1,825.8,629,818.4,629z"/>
		<path class="st25" d="M800,601.7L800,601.7c-4.8,0-8.7-3.9-8.7-8.7v-14.2c0-4.8,3.9-8.7,8.7-8.7l0,0c4.8,0,8.7,3.9,8.7,8.7V593
			C808.7,597.8,804.8,601.7,800,601.7z"/>
		<g>
			<path class="st23" d="M618.5,463.7l-62,10.9c-5.3,0.9-8.8,6-7.9,11.3l17,96.2c0.9,5.3,6,8.8,11.3,7.9l62-10.9
				c5.3-0.9,8.8-6,7.9-11.3l-17-96.2C628.9,466.3,623.8,462.8,618.5,463.7z"/>
			
				<rect x="565.5" y="479.6" transform="matrix(0.9848 -0.1736 0.1736 0.9848 -82.045 111.6995)" class="st26" width="63.8" height="90.3"/>
			<g>
				<path class="st27" d="M574.5,479.7l0.6,3.6c0.4,2.1,2.4,3.5,4.5,3.2l21.2-3.7c2.1-0.4,3.5-2.4,3.2-4.5l-0.6-3.6
					c-0.4-2.1-2.4-3.5-4.5-3.2l-21.2,3.7C575.5,475.5,574.1,477.5,574.5,479.7z"/>
				
					<rect x="585.2" y="469.8" transform="matrix(0.9848 -0.1736 0.1736 0.9848 -73.3031 109.3571)" class="st27" width="6.3" height="7.7"/>
				<path class="st27" d="M585.2,455.8c-4.3,0.8-7.2,4.9-6.4,9.2s4.9,7.2,9.2,6.4c4.3-0.8,7.2-4.9,6.4-9.2S589.5,455,585.2,455.8z
					 M587.2,467.4c-2.1,0.4-4.1-1-4.5-3.1c-0.4-2.1,1-4.1,3.1-4.5s4.1,1,4.5,3.1C590.7,465,589.3,467,587.2,467.4z"/>
			</g>
			<g>
				
					<rect x="571.4" y="500.5" transform="matrix(0.9848 -0.1736 0.1736 0.9848 -78.2176 110.674)" class="st28" width="43.9" height="3.7"/>
				
					<rect x="574.1" y="515.4" transform="matrix(0.9848 -0.1736 0.1736 0.9848 -80.7692 111.3577)" class="st28" width="43.9" height="3.7"/>
				
					<rect x="576.7" y="530.3" transform="matrix(0.9848 -0.1736 0.1736 0.9848 -83.3208 112.0414)" class="st28" width="43.9" height="3.7"/>
				
					<rect x="579.3" y="545.3" transform="matrix(0.9848 -0.1736 0.1736 0.9848 -85.8724 112.725)" class="st28" width="43.9" height="3.7"/>
			</g>
		</g>
		
			<ellipse transform="matrix(0.9682 -0.25 0.25 0.9682 -121.1184 158.7299)" class="st17" cx="564.2" cy="556.1" rx="22.2" ry="24.4"/>
		<g>
			<g>
				<path class="st29" d="M707.5,448.9h-4.3c-1.1,0-2-0.9-2-2s0.9-2,2-2h4.3c5.3,0,10.1-3,12.4-7.7l22.9-46.4
					c1.9-3.9,1.9-8.3,0-12.2l-13.1-26.8c-0.5-1-0.1-2.2,0.9-2.7c1-0.5,2.2-0.1,2.7,0.9l13.1,26.8c2.4,5,2.4,10.7,0,15.7l-22.9,46.4
					C720.5,445,714.3,448.9,707.5,448.9z"/>
				<path class="st29" d="M696.8,448.9h-4.3c-6.9,0-13-3.8-16-10l-22.9-46.4c-2.5-5-2.5-10.7,0-15.7l13.1-26.8
					c0.5-1,1.7-1.4,2.7-0.9c1,0.5,1.4,1.7,0.9,2.7l-13.1,26.8c-1.9,3.9-1.9,8.3,0,12.2l22.9,46.4c2.3,4.8,7.1,7.7,12.4,7.7h4.3
					c1.1,0,2,0.9,2,2S697.9,448.9,696.8,448.9z"/>
			</g>
			<g>
				<path class="st30" d="M715.2,444l-3.2-1.9c-0.7-0.4-1.5-0.2-1.9,0.5l-0.8,1.4c-0.4,0.7-0.2,1.5,0.5,1.9l3.2,1.9
					c0.7,0.4,1.5,0.2,1.9-0.5l0.8-1.4C716.1,445.2,715.9,444.4,715.2,444z"/>
				<path class="st30" d="M684.8,444l3.2-1.9c0.7-0.4,1.5-0.2,1.9,0.5l0.8,1.4c0.4,0.7,0.2,1.5-0.5,1.9l-3.2,1.9
					c-0.7,0.4-1.5,0.2-1.9-0.5l-0.8-1.4C683.9,445.2,684.1,444.4,684.8,444z"/>
			</g>
			<g>
				<rect x="698.1" y="438.5" class="st29" width="3.9" height="6.8"/>
				<path class="st31" d="M694,436.9v3.3c0,0.7,0.6,1.2,1.2,1.2h9.5c0.7,0,1.2-0.6,1.2-1.2v-3.3c0-0.7-0.6-1.2-1.2-1.2h-9.5
					C694.6,435.7,694,436.2,694,436.9z"/>
				<circle class="st31" cx="700" cy="465.3" r="21.8"/>
				<circle class="st20" cx="700" cy="465.3" r="16.5"/>
				<path class="st32" d="M699.1,454.6l-0.9,13.6c-0.1,1,0.8,1.9,1.8,1.9l0,0c1,0,1.9-0.9,1.8-1.9l-0.9-13.6c0-0.5-0.4-0.8-0.9-0.8
					l0,0C699.5,453.8,699.2,454.1,699.1,454.6z"/>
			</g>
		</g>
		<g>
			<path class="st14" d="M711.1,171.2h-22.2c-39.6,0-71.8,32.1-71.8,71.8v63.4c0,39.6,32.1,71.8,71.8,71.8h22.2
				c39.6,0,71.8-32.1,71.8-71.8V243C782.9,203.4,750.8,171.2,711.1,171.2z"/>
			<g>
				<g>
					<circle class="st33" cx="657.8" cy="285.3" r="14.1"/>
					<path class="st33" d="M677.3,265.1c-0.7,0-1.4-0.2-2.1-0.5c-11.7-5.4-23-5.4-34.7,0c-2.5,1.2-5.5,0.1-6.7-2.4
						c-1.2-2.5-0.1-5.5,2.4-6.7c14.3-6.7,28.9-6.7,43.2,0c2.5,1.2,3.6,4.2,2.4,6.7C681,264,679.2,265.1,677.3,265.1z"/>
				</g>
				<g>
					<circle class="st33" cx="742.2" cy="285.3" r="14.1"/>
					<path class="st33" d="M761.7,265.1c-0.7,0-1.4-0.2-2.1-0.5c-11.7-5.4-23-5.4-34.7,0c-2.5,1.2-5.5,0.1-6.7-2.4
						c-1.2-2.5-0.1-5.5,2.4-6.7c14.3-6.7,28.9-6.7,43.2,0c2.5,1.2,3.6,4.2,2.4,6.7C765.4,264,763.6,265.1,761.7,265.1z"/>
				</g>
			</g>
			<path class="st34" d="M733.9,318.5c-0.7,4.6-2.2,8.9-4.5,12.7c-2.6,4.3-6.2,8-10.4,10.9c-5.4,3.6-12,5.7-19,5.7s-13.5-2.1-19-5.7
				c-4.2-2.8-7.7-6.5-10.4-10.9c-2.3-3.8-3.9-8.1-4.5-12.7H733.9z"/>
			<path class="st35" d="M733.9,318.5c-0.7,4.6-2.2,8.9-4.5,12.7h-58.6c-2.3-3.8-3.9-8.1-4.5-12.7H733.9z"/>
			<path class="st36" d="M719,342.1c-5.4,3.6-12,5.7-19,5.7s-13.5-2.1-19-5.7c5.6-3.2,12.1-5,19-5S713.4,338.9,719,342.1z"/>
			<ellipse class="st33" cx="691.6" cy="172.9" rx="76.8" ry="43.9"/>
			<g>
				<path class="st33" d="M776.5,146h-51.7V189h57v97.8h27.4V178.7C809.2,160.6,794.5,146,776.5,146z"/>
				<path class="st33" d="M623.5,146h51.7V189h-57v97.8h-27.4V178.7C590.8,160.6,605.5,146,623.5,146z"/>
			</g>
			<g>
				<path class="st33" d="M776.4,179.6c-21.5,78.6,12.7,119.9,18.7,124.1l10.5-10.8V179.6C805.7,179.6,801.4,179.6,776.4,179.6z"/>
				<path class="st33" d="M623.6,179.6c21.5,78.6-12.7,119.9-18.7,124.1l-10.5-10.8V179.6C594.3,179.6,598.6,179.6,623.6,179.6z"/>
			</g>
			<path class="st33" d="M778.3,195.3c0,20.5-14.8,37.6-34.4,41.1c-2.8,0.5-5.1-2.2-4.2-4.9c1.7-5.2,2.7-10.7,2.7-16.5
				c0-22.9-15-42.4-35.6-49.1c7.6-7.7,18.1-12.4,29.7-12.4C759.6,153.5,778.3,172.2,778.3,195.3z"/>
			<ellipse class="st33" cx="710.6" cy="201.5" rx="51.1" ry="30.7"/>
			<ellipse class="st33" cx="648.5" cy="206.9" rx="40.9" ry="30.7"/>
			<g>
				<circle class="st14" cx="795.9" cy="299.3" r="23.6"/>
				<path class="st37" d="M795.9,314.3c-8.3,0-15-6.7-15-15c0-8.3,6.7-15,15-15c1.4,0,2.5,1.1,2.5,2.5s-1.1,2.5-2.5,2.5
					c-5.5,0-9.9,4.5-9.9,9.9c0,5.5,4.5,9.9,9.9,9.9c1.4,0,2.5,1.1,2.5,2.5S797.3,314.3,795.9,314.3z"/>
				<circle class="st14" cx="604.1" cy="299.3" r="23.6"/>
				<path class="st37" d="M604.1,314.3c-1.4,0-2.5-1.1-2.5-2.5s1.1-2.5,2.5-2.5c5.5,0,9.9-4.5,9.9-9.9c0-5.5-4.5-9.9-9.9-9.9
					c-1.4,0-2.5-1.1-2.5-2.5s1.1-2.5,2.5-2.5c8.3,0,15,6.7,15,15C619.1,307.6,612.3,314.3,604.1,314.3z"/>
			</g>
			<g>
				<circle class="st33" cx="632.7" cy="165.8" r="52.2"/>
				<path class="st38" d="M596.7,182.8c-1.9,0-3.6-1.2-4.3-3.1c-1.5-4.5-2.3-9.2-2.3-13.9c0-23.5,19.1-42.6,42.6-42.6
					c4.9,0,9.7,0.8,14.3,2.4c2.4,0.8,3.6,3.4,2.8,5.8c-0.8,2.4-3.4,3.6-5.8,2.8c-3.6-1.3-7.4-1.9-11.2-1.9
					c-18.5,0-33.5,15-33.5,33.5c0,3.8,0.6,7.4,1.8,11c0.8,2.4-0.4,5-2.8,5.8C597.7,182.8,597.2,182.8,596.7,182.8z"/>
				<path class="st38" d="M670,162.7c-2.1,0-4-1.5-4.5-3.6c-1.1-5.4-3.6-10.5-7.1-14.7c-1.6-1.9-1.4-4.8,0.6-6.4
					c1.9-1.6,4.8-1.4,6.4,0.6c4.5,5.4,7.7,11.9,9.1,18.8c0.5,2.5-1.1,4.9-3.5,5.4C670.6,162.6,670.3,162.7,670,162.7z"/>
			</g>
			<path class="st38" d="M733.9,152.7c-0.6,0-1.2-0.1-1.8-0.4c-2.7-1.2-5.6-2.3-8.7-3.2c-2.4-0.7-3.7-3.3-3-5.7
				c0.7-2.4,3.3-3.7,5.7-3c3.4,1,6.6,2.2,9.6,3.6c2.3,1,3.3,3.7,2.3,6C737.3,151.7,735.6,152.7,733.9,152.7z"/>
			<path class="st38" d="M710.6,146.1c-0.2,0-0.5,0-0.7-0.1c-5.9-0.9-12.1-1.4-18.3-1.4c-5.5,0-10.8,0.4-16,1.1
				c-2.5,0.3-4.8-1.4-5.1-3.9c-0.3-2.5,1.4-4.8,3.9-5.1c5.6-0.8,11.4-1.1,17.2-1.1c6.8,0,13.4,0.5,19.8,1.5c2.5,0.4,4.2,2.7,3.8,5.2
				C714.8,144.5,712.8,146.1,710.6,146.1z"/>
		</g>
	</g>
	<g>
		<path class="st19" d="M831.7,529.2c-2.4,0-4.3,1.9-4.3,4.3V554c0,2.4,1.9,4.3,4.3,4.3s4.3-1.9,4.3-4.3v-20.5
			C836,531.2,834.1,529.2,831.7,529.2z"/>
		<circle class="st27" cx="831.7" cy="543.8" r="2.9"/>
		<rect x="785.7" y="535.9" class="st18" width="41.7" height="15.7"/>
	</g>
</g>
<g>
	<path class="st28" d="M385.2,649.2v15.1c0,1.7,1.4,3,3,3h81.5c1.7,0,3-1.4,3-3v-15.1c0-1.7-1.4-3-3-3h-81.5
		C386.5,646.2,385.2,647.6,385.2,649.2z"/>
	<path class="st26" d="M465.2,649.2v15.1c0,1.7,1.4,3,3,3h10.5c1.7,0,3-1.4,3-3v-15.1c0-1.7-1.4-3-3-3h-10.5
		C466.5,646.2,465.2,647.6,465.2,649.2z"/>
	<rect x="395.1" y="667.4" class="st28" width="70.1" height="44.5"/>
	<rect x="395.1" y="667.4" class="st39" width="70.1" height="2.5"/>
	<rect x="462.7" y="667.4" class="st26" width="2.4" height="44.5"/>
	<path class="st28" d="M481.8,663.8h-12c-0.9,0-1.5-0.7-1.5-1.5v-8.8c0-0.9,0.7-1.5,1.5-1.5h6.6c0.9,0,1.5,0.7,1.5,1.5l0,0
		c0,0.9-0.7,1.5-1.5,1.5h-5.1v5.7h10.4V663.8z"/>
</g>
<g>
	
		<rect x="552" y="644.8" transform="matrix(0.5579 -0.8299 0.8299 0.5579 -294.1917 749.7447)" class="st40" width="9.2" height="12.5"/>
	
		<rect x="571.6" y="651.4" transform="matrix(0.5579 -0.8299 0.8299 0.5579 -291.0473 768.8914)" class="st40" width="9.2" height="12.5"/>
	<path class="st40" d="M568.5,640.4c-4.8-3-11.2-1.7-14.3,3c-3.2,4.8-2,11.4,2.9,14.6s11.4,2,14.6-2.9c0.4-0.6,0.7-1.1,0.9-1.7
		l9.6,6.4l4.8-7.1L568.5,640.4L568.5,640.4z"/>
	
		<rect x="566" y="643.9" transform="matrix(0.5579 -0.8299 0.8299 0.5579 -284.7414 758.2661)" class="st41" width="6.5" height="5"/>
	<path class="st40" d="M548.2,640.3c-1.3,0.4-2.5,1.3-3.2,2.4c-1.9,2.8-1.1,6.5,1.6,8.4c2.8,1.9,6.5,1.1,8.4-1.6
		c1.9-2.8,1.1-6.5-1.6-8.4C551.8,640,550,639.7,548.2,640.3z M552.7,647.9c-1,1.5-3,1.9-4.5,0.9c-1.5-1-1.9-3-0.9-4.5
		c0.4-0.6,1-1.1,1.7-1.3c0.9-0.3,2-0.1,2.8,0.4C553.3,644.4,553.7,646.4,552.7,647.9z"/>
	<path class="st31" d="M563.5,647.9c-4.8-3-11.2-1.7-14.3,3c-3.2,4.8-2,11.4,2.9,14.6c4.8,3.2,11.4,2,14.6-2.9
		c0.4-0.6,0.7-1.1,0.9-1.7l9.6,6.4l4.8-7.1L563.5,647.9L563.5,647.9z"/>
</g>
<g>
	<rect x="499.2" y="596.2" class="st42" width="32.9" height="11.1"/>
	<path class="st42" d="M521,568.5h-10.6v-6c0-1.1,0.9-1.9,1.9-1.9h6.8c1.1,0,1.9,0.9,1.9,1.9V568.5z"/>
	<path class="st29" d="M505.6,570.6v10.8h20.2v-10.8c0-2.4-1.9-4.3-4.3-4.3h-11.6C507.6,566.3,505.6,568.2,505.6,570.6z"/>
	<path class="st30" d="M494.3,662v-49.3c0-3,2.4-5.4,5.4-5.4h32c3,0,5.4,2.4,5.4,5.4V662c0,3-2.4,5.4-5.4,5.4h-32
		C496.7,667.4,494.3,665,494.3,662z"/>
	<path class="st30" d="M494.3,594.4v-7.7c0-2.9,2.4-5.3,5.3-5.3h32.2c2.9,0,5.3,2.4,5.3,5.3v7.7c0,2.9-2.4,5.3-5.3,5.3h-32.2
		C496.7,599.7,494.3,597.3,494.3,594.4z"/>
	<rect x="494.3" y="621.2" class="st43" width="42.8" height="23.8"/>
</g>
<g>
	<path class="st44" d="M346.3,803.1c0-18.2-13.2-33.2-30.6-36.1v-0.5h-6.1c-20.2,0-36.6,16.4-36.6,36.6c0,20.2,16.4,36.6,36.6,36.6
		h6.1v-0.5C333.1,836.3,346.3,821.3,346.3,803.1z"/>
	<circle class="st3" cx="315.7" cy="803.1" r="36.6"/>
	<circle class="st4" cx="315.7" cy="803.1" r="27"/>
	<path class="st9" d="M312.6,796.6c-3.6,0-6.5,2.9-6.5,6.5c0,3.6,2.9,6.5,6.5,6.5h32.7v-13H312.6z"/>
	<path class="st44" d="M388,803.1c0-18.2-13.2-33.2-30.6-36.1v-0.5h-6.1c-20.2,0-36.6,16.4-36.6,36.6c0,20.2,16.4,36.6,36.6,36.6
		h6.1v-0.5C374.8,836.3,388,821.3,388,803.1z"/>
	<circle class="st3" cx="357.5" cy="803.1" r="36.6"/>
	<circle class="st4" cx="357.5" cy="803.1" r="27"/>
	<circle class="st9" cx="357.5" cy="803.1" r="6.5"/>
</g>
</svg>
