<?xml version="1.0" encoding="utf-8"?>
<!-- Generator: Adobe Illustrator 21.0.0, SVG Export Plug-In . SVG Version: 6.00 Build 0)  -->
<svg version="1.1" id="Layer_1" xmlns="http://www.w3.org/2000/svg" xmlns:xlink="http://www.w3.org/1999/xlink" x="0px" y="0px"
	 width="1400px" height="980px" viewBox="0 0 1400 980" style="enable-background:new 0 0 1400 980;" xml:space="preserve">
<style type="text/css">
	.st0{fill:#F9EED8;}
	.st1{fill:#E5D6B7;}
	.st2{fill:#F3E8D3;}
	.st3{fill:#F9F2E8;}
	.st4{fill:#F3BA83;}
	.st5{fill:#DC9C67;}
	.st6{fill:#7B213F;}
	.st7{fill:#9B485F;}
	.st8{fill:#D89966;}
	.st9{fill:#5A4C5E;}
	.st10{fill:#F2A286;}
	.st11{fill:#E39886;}
	.st12{fill:#943B51;}
	.st13{fill:#EF4782;}
	.st14{fill:#EFF8FA;}
	.st15{fill:#F16690;}
	.st16{fill:#8A5764;}
	.st17{fill:#D3507C;}
	.st18{fill:#CEDBDD;}
	.st19{fill:#564172;}
	.st20{fill:#FFD67B;}
	.st21{fill:#6F5E8A;}
	.st22{fill:#45355E;}
	.st23{fill:#F7CEAD;}
	.st24{fill:#9A596C;}
	.st25{fill:#68C187;}
	.st26{fill:#85CA9B;}
	.st27{fill:#E7C897;}
	.st28{fill:#DAAF6A;}
	.st29{fill:#E3D5B3;}
	.st30{fill:#F5E8C7;}
	.st31{fill:#A06C83;}
	.st32{fill:#CCA7CE;}
	.st33{fill:#E0CDE3;}
	.st34{fill:#9997CA;}
	.st35{fill:#8585BA;}
	.st36{fill:#7A79B9;}
	.st37{fill:#5D5EA4;}
	.st38{fill:#B8B8DC;}
	.st39{fill:#DD6E99;}
</style>
<rect class="st0" width="1400" height="980"/>
<g>
	<path class="st1" d="M298.04947,155.95113v535.13788c0,35.99347,29.17847,65.17194,65.17194,65.17194h673.55713
		c35.99353,0,65.172-29.17847,65.172-65.17194V155.95113c0-35.99348-29.17847-65.17195-65.172-65.17195H363.22141
		C327.22794,90.77917,298.04947,119.95765,298.04947,155.95113z"/>
	<path class="st2" d="M363.22141,727.59851c-20.13165,0-36.50995-16.3783-36.50995-36.50995V155.95113
		c0-20.13165,16.3783-36.50994,36.50995-36.50994h673.55713c20.13171,0,36.51001,16.37829,36.51001,36.50994v535.13745
		c0,20.13165-16.3783,36.50995-36.51001,36.50995H363.22141z"/>
	<g>
		<path class="st3" d="M496.46674,244.38593L360.04727,380.80539c-4.26407,4.26407-4.26407,11.17749,0,15.44159h0.00003
			c4.26407,4.26407,11.17749,4.26407,15.44159,0l136.41946-136.41946c4.26407-4.26407,4.26407-11.17751,0-15.44157l-0.00003-0.00002
			C507.64426,240.12184,500.7308,240.12184,496.46674,244.38593z"/>
		<path class="st3" d="M537.64429,203.20836l-12.99286,12.99289c-4.2641,4.26408-4.2641,11.17752,0,15.44159v0.00002
			c4.2641,4.26407,11.17749,4.26407,15.44159,0l12.99286-12.99289c4.2641-4.26408,4.2641-11.17752,0-15.44159v-0.00002
			C548.82184,198.94429,541.90839,198.94429,537.64429,203.20836z"/>
		<path class="st3" d="M483.93109,362.03708l-50.83926,50.83926c-4.26407,4.2641-4.26407,11.17752,0,15.44159v0.00003
			c4.2641,4.26407,11.17752,4.26407,15.44159,0l50.83926-50.83926c4.26407-4.26407,4.26407-11.17752,0-15.44159v-0.00003
			C495.10858,357.77301,488.19516,357.77301,483.93109,362.03708z"/>
		<path class="st3" d="M531.86432,314.10382l-12.99286,12.99289c-4.2641,4.2641-4.2641,11.17752,0,15.44159v0.00003
			c4.2641,4.26407,11.17749,4.26407,15.44159,0l12.99292-12.99289c4.26404-4.2641,4.26404-11.17752,0-15.44159l-0.00006-0.00003
			C543.04187,309.83975,536.12842,309.83975,531.86432,314.10382z"/>
	</g>
	<g>
		<path class="st3" d="M935.22345,591.38861l-50.83929,50.83929c-4.26404,4.26404-4.26404,11.17749,0,15.44159l0,0
			c4.2641,4.2641,11.17755,4.2641,15.44159,0l50.83929-50.83929c4.2641-4.26404,4.2641-11.17749,0-15.44153v-0.00006
			C946.40094,587.12457,939.48749,587.12457,935.22345,591.38861z"/>
		<path class="st3" d="M1025.58423,576.47107L974.745,627.3103c-4.2641,4.2641-4.2641,11.17749,0,15.44159l0,0
			c4.2641,4.2641,11.17755,4.2641,15.44159,0l50.83929-50.83923c4.26404-4.2641,4.26404-11.17755,0-15.44159l0,0
			C1036.76172,572.20697,1029.84839,572.20697,1025.58423,576.47107z"/>
		<path class="st3" d="M975.43591,551.17615l-5.27209,5.27209c-4.2641,4.2641-4.2641,11.17755,0,15.44159l0,0
			c4.2641,4.2641,11.17749,4.2641,15.44159,0l5.27209-5.27209c4.26404-4.26404,4.26404-11.17749,0-15.44153v-0.00006
			C986.6134,546.91211,979.69995,546.91211,975.43591,551.17615z"/>
	</g>
</g>
<g>
	<path class="st4" d="M852.60352,594.07837c-3.93597,0-7.89191-1.35419-11.11078-4.12122L724.21497,489.17694
		c-7.14685-6.14117-7.96124-16.91275-1.82074-24.05893c6.13922-7.14484,16.91278-7.9639,24.05829-1.82004l117.27777,100.78021
		c7.14685,6.1405,7.96124,16.91278,1.82074,24.05829C862.17749,592.06311,857.40448,594.07837,852.60352,594.07837z"/>
	<path class="st5" d="M852.60352,594.07837c2.3252,0,4.64044-0.48279,6.79669-1.41638L718.75067,472.27325
		c-1.43219,6.01434,0.45184,12.59653,5.46429,16.90369l117.27777,100.78021
		C844.71161,592.72418,848.66754,594.07837,852.60352,594.07837z"/>
	<path class="st4" d="M548.03967,594.07837c-4.80096,0-9.57263-2.01398-12.94745-5.94189
		c-6.14124-7.14551-5.32617-17.91779,1.82001-24.05829l117.2771-100.78021c7.14618-6.14185,17.91644-5.32614,24.05896,1.82004
		c6.14117,7.14618,5.32617,17.91776-1.82001,24.05893L559.15112,589.95715
		C555.93158,592.72418,551.97565,594.07837,548.03967,594.07837z"/>
	<path class="st5" d="M681.67029,471.44263c-23.92273,20.21954-97.82397,83.61853-141.19238,120.8526
		c2.3692,1.16968,4.95703,1.78314,7.56177,1.78314c3.93597,0,7.89191-1.35419,11.11145-4.12122l117.27716-100.78021
		C681.67218,484.67053,683.49164,477.67365,681.67029,471.44263z"/>
	<path class="st6" d="M754.03479,209.18057c27.72296,0,65.67487,5.4303,82.3717,83.25003
		c7.22479,33.67276-8.24359,71.43381-11.88324,96.45621c-3.63959,25.02237,10.77557,66.57834,24.49579,76.05472
		c-9.95898,1.65695-33.18915-17.89911-35.89423-25.36667c-3.61499,7.54587,2.29645,20.56427,6.16504,24.74646
		c-8.41516,3.27228-68.78461-23.83276-76.40149-67.43292S754.03479,209.18057,754.03479,209.18057z"/>
	<rect x="676.323" y="418.00372" class="st4" width="47.99644" height="61.8736"/>
	<path class="st7" d="M690.6535,192.34732h19.33545c47.80286,0,86.55475,38.75186,86.55475,86.55472v74.3862H604.09875v-74.3862
		C604.09875,231.09918,642.85065,192.34732,690.6535,192.34732z"/>
	<g>
		<g>
			<path class="st4" d="M792.966,338.43936h-29.12207v30.35791H792.966c8.38312,0,15.17896-6.79587,15.17896-15.17899
				C808.14496,345.23523,801.34912,338.43936,792.966,338.43936z"/>
			<path class="st8" d="M771.22778,361.41376v-15.5914h21.73834c4.29865,0,7.79572,3.49707,7.79572,7.79568
				c0,4.29865-3.49707,7.79572-7.79572,7.79572H771.22778z"/>
		</g>
		<g>
			<path class="st4" d="M607.67645,338.43936h29.12207v30.35791h-29.12207c-8.38312,0-15.17896-6.79587-15.17896-15.17899
				C592.4975,345.23523,599.29333,338.43936,607.67645,338.43936z"/>
			<path class="st8" d="M629.41467,361.41376v-15.5914h-21.73834c-4.29865,0-7.79572,3.49707-7.79572,7.79568
				c0,4.29865,3.49707,7.79572,7.79572,7.79572H629.41467z"/>
		</g>
	</g>
	<path class="st4" d="M700.32129,441.20633h-0.00012c-44.85046,0-81.20898-36.35846-81.20898-81.20892v-93.60657
		c0-18.02814,14.61475-32.64284,32.64288-32.64284h97.13232c18.02814,0,32.64288,14.6147,32.64288,32.64284v93.60657
		C781.53027,404.84787,745.17175,441.20633,700.32129,441.20633z"/>
	<path class="st7" d="M619.11218,292.66434c0-26.84219,8.52081-33.54492,23.88501-39.58086
		c12.73871-5.00447,40.37128,12.05626,57.32404,12.05626s44.58533-17.06073,57.32404-12.05626
		c15.3642,6.03593,23.88501,12.73866,23.88501,39.58086h9.55396V256.3819l-24.67181-32.75659
		c0,0-49.71289-13.98979-57.2196-12.62492c-7.50671,1.36485-66.19562,6.82428-66.19562,6.82428
		s-16.71948,11.37381-19.79041,15.92334s-13.64856,27.75209-13.64856,27.75209l2.72968,33.43903L619.11218,292.66434z"/>
	<g>
		<path class="st9" d="M742.88837,330.08533c-6.15601,0-11.14642,4.99045-11.14642,11.14642v3.92078
			c0,6.15598,4.99042,11.14639,11.14642,11.14639s11.14642-4.99042,11.14642-11.14639v-3.92078
			C754.03479,335.07578,749.04437,330.08533,742.88837,330.08533z"/>
		<path class="st10" d="M759.66718,363.06921h-9.02765c-4.28088,0-7.75116,3.4704-7.75116,7.75128
			c0,4.28082,3.47028,7.75119,7.75116,7.75119h9.02765c4.28088,0,7.75116-3.47037,7.75116-7.75119
			C767.41833,366.53961,763.94806,363.06921,759.66718,363.06921z"/>
		<path class="st9" d="M657.75409,330.08533c6.15594,0,11.14642,4.99045,11.14642,11.14642v3.92078
			c0,6.15598-4.99048,11.14639-11.14642,11.14639c-6.15601,0-11.14642-4.99042-11.14642-11.14639v-3.92078
			C646.60767,335.07578,651.59808,330.08533,657.75409,330.08533z"/>
		<path class="st10" d="M640.97528,363.06921h9.02759c4.28094,0,7.75122,3.4704,7.75122,7.75128
			c0,4.28082-3.47028,7.75119-7.75122,7.75119h-9.02759c-4.28088,0-7.75116-3.47037-7.75116-7.75119
			C633.22412,366.53961,636.6944,363.06921,640.97528,363.06921z"/>
		<path class="st11" d="M700.32062,402.59381c-8.87756,0-17.75647-1.61078-25.33252-4.83231
			c-1.73474-0.73776-2.54242-2.74106-1.80536-4.4758c0.73773-1.73404,2.74438-2.54111,4.47577-1.80469
			c13.34467,5.67535,31.98419,5.67401,45.32489,0c1.73669-0.73642,3.73865,0.07129,4.47577,1.80469
			c0.73706,1.73474-0.07068,3.73804-1.80475,4.4758C718.07843,400.98303,709.2002,402.59381,700.32062,402.59381z"/>
		<path class="st12" d="M762.02808,313.16025c-0.86517,0-1.74475-0.17075-2.59131-0.53235
			c-10.67236-4.5513-22.42371-4.5513-33.09607,0c-3.35327,1.43484-7.2417-0.12912-8.67511-3.48666s0.12775-7.24307,3.48669-8.67505
			c14.01556-5.98044,29.45734-5.98044,43.4729,0c3.35895,1.43198,4.92004,5.3175,3.48663,8.67505
			C767.03998,311.65366,764.5965,313.16025,762.02808,313.16025z"/>
		<path class="st12" d="M676.89343,313.16025c-0.86517,0-1.74475-0.17075-2.59131-0.53235
			c-10.67236-4.5513-22.42377-4.5513-33.09613,0c-3.35321,1.43484-7.24164-0.12912-8.67505-3.48666s0.12769-7.24307,3.48669-8.67505
			c14.01556-5.98044,29.45734-5.98044,43.4729,0c3.35895,1.43198,4.92004,5.3175,3.48663,8.67505
			C681.90533,311.65366,679.46179,313.16025,676.89343,313.16025z"/>
	</g>
	<g>
		<path class="st4" d="M700.32123,703.47449c-37.09418,0-67.16534-30.07056-67.16534-67.16534V511.34128
			c0-37.09479,30.07117-67.16534,67.16534-67.16534c37.09479,0,67.16534,30.07056,67.16534,67.16534v124.96786
			C767.48657,673.40393,737.41602,703.47449,700.32123,703.47449z"/>
		<rect x="633.15588" y="550.84991" class="st13" width="134.33067" height="23.67245"/>
		<rect x="633.15588" y="574.52234" class="st14" width="134.33067" height="7.71928"/>
		<path class="st15" d="M754.29163,480.42624l-1.67346-11.21201c-5.47229-6.78479-12.23175-12.48438-19.91577-16.7215
			l-3.29932,24.92822c-1.02765,7.76465-7.64832,13.5668-15.48071,13.5668h-27.20221c-7.83234,0-14.453-5.80215-15.48071-13.5668
			l-3.29932-24.92807c-7.68408,4.23718-14.4436,9.93683-19.91595,16.72171l-1.67334,11.21164
			c-1.52173,10.1954-6.97388,19.45529-15.33752,25.48117c-7.20825,5.19345-11.90112,13.65979-11.90112,23.22278v2.97284
			c0,15.79834,12.80707,28.60535,28.60541,28.60535h105.20734c15.79828,0,28.60535-12.80701,28.60535-28.60535v-2.97284
			c0-9.56299-4.69287-18.02933-11.90112-23.22278C761.2655,499.88153,755.81335,490.62164,754.29163,480.42624z"/>
		<path class="st16" d="M633.33191,640.93048c2.37683,34.93665,31.45032,62.54407,66.98932,62.54407
			c35.53967,0,64.61249-27.60742,66.98932-62.54407H633.33191z"/>
		<path class="st16" d="M730.86469,703.47455h-61.08691c-20.12848,0-36.44586-16.31738-36.44586-36.44592v-26.09814h133.97864
			v26.09814C767.31055,687.15717,750.99316,703.47455,730.86469,703.47455z"/>
		<path class="st14" d="M633.15588,630.92151v5.38757c0,1.55518,0.07196,3.09271,0.17603,4.6214h133.97864
			c0.10394-1.52869,0.17603-3.06622,0.17603-4.6214v-5.38757H633.15588z"/>
	</g>
	<g>
		<path class="st16" d="M717.39734,702.91913c-10.67896,0-20.87408-6.14453-25.53644-16.51563
			c-6.33514-14.09375-0.04468-30.65594,14.04974-36.99109l96.90491-43.55682c14.09375-6.33508,30.65594-0.04663,36.99109,14.0498
			c6.33514,14.09375,0.04529,30.65594-14.04974,36.99109l-96.90491,43.55682
			C725.12927,702.12604,721.23065,702.91913,717.39734,702.91913z"/>
		<path class="st4" d="M814.28619,825.86823c-13.19141,0-23.88501-10.6936-23.88501-23.88501V631.37604
			c0-13.19141,10.6936-23.88501,23.88501-23.88501s23.88501,10.6936,23.88501,23.88501v170.60718
			C838.1712,815.17462,827.4776,825.86823,814.28619,825.86823z"/>
		<rect x="790.40118" y="771.95636" class="st14" width="47.77001" height="30.02687"/>
		<rect x="788.33459" y="798.57153" class="st17" width="51.90446" height="52.88823"/>
		<path class="st18" d="M844.78564,862.71985h-55.95917c-3.48627,0-6.31244-2.82617-6.31244-6.3125v-3.75336
			c0-3.48627,2.82617-6.31244,6.31244-6.31244h55.95917c3.48627,0,6.31244,2.82617,6.31244,6.31244v3.75336
			C851.09808,859.89368,848.27191,862.71985,844.78564,862.71985z"/>
		<path class="st17" d="M810.7041,778.09869h19.12793c5.74762,0,10.40704,4.65936,10.40704,10.40704v16.20764h-39.94202v-16.20764
			C800.29706,782.75806,804.95642,778.09869,810.7041,778.09869z"/>
		<g>
			<path class="st14" d="M834.24786,807.10187h-29.34442c-1.41339,0-2.55908-1.14575-2.55908-2.55908l0,0
				c0-1.41333,1.14569-2.55908,2.55908-2.55908h29.34442c1.41339,0,2.55914,1.14575,2.55914,2.55908l0,0
				C836.80701,805.95612,835.66125,807.10187,834.24786,807.10187z"/>
			<path class="st14" d="M834.24786,817.85016h-29.34442c-1.41339,0-2.55908-1.14575-2.55908-2.55914l0,0
				c0-1.41333,1.14569-2.55908,2.55908-2.55908h29.34442c1.41339,0,2.55914,1.14575,2.55914,2.55908l0,0
				C836.80701,816.70441,835.66125,817.85016,834.24786,817.85016z"/>
		</g>
		<path class="st15" d="M854.55011,846.34155h-59.1098v-10.36719c0-13.49597,10.94067-24.43671,24.43671-24.43671h10.23639
			c13.49603,0,24.43671,10.94073,24.43671,24.43671V846.34155z"/>
		<path class="st14" d="M852.97479,862.71985h-55.95917c-3.48627,0-6.31244-2.82617-6.31244-6.3125v-3.75336
			c0-3.48627,2.82617-6.31244,6.31244-6.31244h55.95917c3.48627,0,6.31244,2.82617,6.31244,6.31244v3.75336
			C859.28723,859.89368,856.46106,862.71985,852.97479,862.71985z"/>
	</g>
	<g>
		<path class="st16" d="M672.2124,702.91913c-3.83466,0-7.73065-0.79175-11.45465-2.46582l-96.90491-43.55682
			c-14.09442-6.33514-20.38489-22.89734-14.04974-36.99109c6.33508-14.09509,22.89868-20.38361,36.99109-14.0498l96.90485,43.55682
			c14.09442,6.33514,20.38428,22.89734,14.04913,36.99109C693.0871,696.7746,682.89001,702.91913,672.2124,702.91913z"/>
		<path class="st4" d="M575.32349,825.86823c-13.19135,0-23.88501-10.6936-23.88501-23.88501V631.37604
			c0-13.19141,10.69366-23.88501,23.88501-23.88501c13.19141,0,23.88501,10.6936,23.88501,23.88501v170.60718
			C599.2085,815.17462,588.51489,825.86823,575.32349,825.86823z"/>
		<rect x="551.43848" y="771.95636" class="st14" width="47.77001" height="30.02687"/>
		
			<rect x="549.37134" y="798.57153" transform="matrix(-1 4.496258e-11 -4.496258e-11 -1 1150.64709 1650.03125)" class="st17" width="51.90446" height="52.88823"/>
		<path class="st18" d="M544.82477,862.71985h55.95911c3.48633,0,6.3125-2.82617,6.3125-6.3125v-3.75336
			c0-3.48627-2.82617-6.31244-6.3125-6.31244h-55.95911c-3.48633,0-6.3125,2.82617-6.3125,6.31244v3.75336
			C538.51227,859.89368,541.33844,862.71985,544.82477,862.71985z"/>
		<path class="st17" d="M578.90631,778.09869h-19.12793c-5.74768,0-10.40704,4.65936-10.40704,10.40704v16.20764h39.94202v-16.20764
			C589.31335,782.75806,584.65393,778.09869,578.90631,778.09869z"/>
		<g>
			<path class="st14" d="M555.36249,807.10187h29.34448c1.41333,0,2.55908-1.14575,2.55908-2.55908l0,0
				c0-1.41333-1.14575-2.55908-2.55908-2.55908h-29.34448c-1.41333,0-2.55908,1.14575-2.55908,2.55908l0,0
				C552.80341,805.95612,553.94916,807.10187,555.36249,807.10187z"/>
			<path class="st14" d="M555.36249,817.85016h29.34448c1.41333,0,2.55908-1.14575,2.55908-2.55914l0,0
				c0-1.41333-1.14575-2.55908-2.55908-2.55908h-29.34448c-1.41333,0-2.55908,1.14575-2.55908,2.55908l0,0
				C552.80341,816.70441,553.94916,817.85016,555.36249,817.85016z"/>
		</g>
		<path class="st15" d="M535.06024,846.34155h59.10986v-10.36719c0-13.49597-10.94067-24.43671-24.43671-24.43671h-10.23645
			c-13.49603,0-24.43671,10.94073-24.43671,24.43671V846.34155z"/>
		<path class="st14" d="M536.63562,862.71985h55.95911c3.48633,0,6.3125-2.82617,6.3125-6.3125v-3.75336
			c0-3.48627-2.82617-6.31244-6.3125-6.31244h-55.95911c-3.48633,0-6.3125,2.82617-6.3125,6.31244v3.75336
			C530.32312,859.89368,533.14929,862.71985,536.63562,862.71985z"/>
	</g>
	<path class="st7" d="M786.30725,407.19864L786.30725,407.19864c-2.63824,0-4.77698-2.13873-4.77698-4.77698v-70.29019h9.55396
		v70.29019C791.08423,405.05991,788.9455,407.19864,786.30725,407.19864z"/>
	<path class="st7" d="M614.33521,406.33084L614.33521,406.33084c-2.63824,0-4.77698-2.13873-4.77698-4.77701v-70.29016h9.55396
		v70.29016C619.11218,404.19211,616.97345,406.33084,614.33521,406.33084z"/>
	<path class="st5" d="M756.573,555.00934c-1.68872,0-3.40283-0.39319-5.00629-1.22223l-25.97626-13.43268
		c-5.35681-2.771-7.45337-9.35803-4.68372-14.71484c2.77106-5.35547,9.35944-7.4541,14.7149-4.68304l25.97626,13.43201
		c5.35681,2.771,7.45343,9.35803,4.68372,14.71484C764.34094,552.85675,760.52631,555.00934,756.573,555.00934z"/>
	<path class="st5" d="M644.06891,555.00934c-3.95331,0-7.76733-2.15259-9.70795-5.90594
		c-2.77039-5.35681-0.67316-11.94519,4.68298-14.71484l25.97699-13.43201c5.35876-2.77039,11.94446-0.67242,14.71417,4.68304
		c2.77039,5.35681,0.6731,11.94513-4.68304,14.71484l-25.97693,13.43268
		C647.47168,554.61615,645.75696,555.00934,644.06891,555.00934z"/>
	<g>
		<path class="st19" d="M725.84418,604.78577h-51.04681c-3.48505,0-6.67297-1.96497-8.2381-5.07898l-13.44952-26.74414
			c-4.67377-9.29352-4.20544-20.12872,1.25446-28.98639c5.45905-8.8559,14.92999-14.1438,25.33386-14.1438h41.24725
			c10.40479,0,19.87482,5.2879,25.33386,14.14557c5.45905,8.8559,5.92731,19.6911,1.25354,28.98645l-13.45044,26.74231
			C732.51715,602.8208,729.32928,604.78577,725.84418,604.78577z M680.48157,586.34283h39.67847l10.89648-21.6651
			c1.80463-3.58771,1.62994-7.60413-0.47729-11.02252c-2.10724-3.41846-5.61755-5.37982-9.63391-5.37982h-41.24725
			c-4.0155,0-7.52759,1.96136-9.63483,5.37982c-2.10632,3.4184-2.28107,7.43481-0.47729,11.02252L680.48157,586.34283z"/>
		<path class="st20" d="M735.99866,567.16321c2.68719-5.34015,2.4278-11.32153-0.70966-16.41132
			c-3.13745-5.08984-8.36597-8.0094-14.34369-8.0094h-41.24725c-5.97864,0-11.20715,2.91956-14.3446,8.0094
			c-3.1366,5.08978-3.39502,11.07117-0.71051,16.41132l12.42828,24.71252h46.5L735.99866,567.16321z M680.48157,586.34283
			l-10.89563-21.6651c-1.80377-3.58771-1.62903-7.60413,0.47729-11.02252c2.10724-3.41846,5.61932-5.37982,9.63483-5.37982h41.24725
			c4.01636,0,7.52667,1.96136,9.63391,5.37982c2.10724,3.4184,2.28192,7.43481,0.47729,11.02252l-10.89648,21.6651H680.48157z"/>
		<path class="st19" d="M700.32123,572.86273c-29.01691,0-52.53961,23.52277-52.53961,52.53961
			c0,29.01678,23.52271,35.01471,52.53961,35.01471s52.53961-5.99792,52.53961-35.01471
			C752.86084,596.3855,729.33813,572.86273,700.32123,572.86273z"/>
		<path class="st21" d="M658.7774,605.8363c-0.33221,0-0.66998-0.07751-0.9856-0.24359
			c-1.03949-0.54535-1.44092-1.8299-0.89557-2.86945c4.90973-9.36407,12.86475-17.02563,22.39911-21.57269
			c1.06165-0.50525,2.32959-0.05676,2.83484,1.00354c0.50519,1.0589,0.05603,2.32825-1.00427,2.83344
			c-8.71002,4.1554-15.97778,11.15527-20.46326,19.70959C660.28271,605.42249,659.54285,605.8363,658.7774,605.8363z"/>
		<circle class="st21" cx="700.32123" cy="616.63989" r="18.86559"/>
		<rect x="682.12805" y="529.57849" class="st20" width="36.38641" height="16.8292"/>
		<path class="st22" d="M660.90564,652.43958c9.62775,6.21106,23.71228,7.97748,39.41565,7.97748
			c29.01678,0,52.53949-5.99799,52.53949-35.01477c0-9.89362-2.73877-19.14575-7.49341-27.04736
			C743.46832,618.99841,723.48798,655.6911,660.90564,652.43958z"/>
	</g>
	<path class="st4" d="M852.61816,594.0824c-1.61145,0-3.24817-0.22925-4.87164-0.71179l-106.13098-31.573
		c-9.03149-2.68701-14.17371-12.1864-11.48798-21.2179c2.68707-9.03156,12.18774-14.17175,21.2179-11.48804l106.13104,31.573
		c9.03149,2.68707,14.17371,12.18646,11.48798,21.21796C866.75989,589.29071,859.97162,594.0824,852.61816,594.0824z"/>
	<path class="st5" d="M750.91254,556.87799c0,0-0.77972,3.05536-1.62158,7.203l98.45557,29.28961
		c1.62347,0.48254,3.26019,0.71179,4.87164,0.71179c2.93781,0,5.77936-0.77576,8.28046-2.16656L750.91254,556.87799z"/>
	<circle class="st4" cx="750.98395" cy="552.81934" r="26.19194"/>
	<path class="st5" d="M750.98395,572.1189c-13.84265,0-25.14874-9.33234-26.09882-21.14398
		c-0.04272,0.61176-0.09314,1.22174-0.09314,1.84442c0,14.46539,11.72656,26.19189,26.19196,26.19189
		s26.19196-11.7265,26.19196-26.19189c0-0.62268-0.05042-1.23267-0.09314-1.84442
		C776.13269,562.78656,764.8266,572.1189,750.98395,572.1189z"/>
	<path class="st4" d="M548.02502,594.0824c-7.35413,0-14.14172-4.79169-16.34564-12.19977
		c-2.68707-9.03149,2.45648-18.53088,11.48737-21.21796l106.13031-31.573c9.03217-2.68634,18.53088,2.45782,21.21729,11.48804
		c2.68707,9.03149-2.45648,18.53088-11.48737,21.2179l-106.13031,31.573C551.27393,593.85315,549.6358,594.0824,548.02502,594.0824z
		"/>
	<path class="st5" d="M633.33197,564.15723l-93.84753,27.61115c2.56287,1.48419,5.50024,2.31403,8.54059,2.31403
		c1.61078,0,3.2489-0.22925,4.87164-0.71179l83.70422-24.90137C634.7464,566.04333,633.33197,564.15723,633.33197,564.15723z"/>
	<circle class="st4" cx="649.65851" cy="552.81934" r="26.19194"/>
	<path class="st5" d="M649.65851,572.57379c-13.88647,0-25.2182-9.48596-26.10541-21.46918
		c-0.03699,0.56958-0.08655,1.13586-0.08655,1.71472c0,14.46539,11.72656,26.19189,26.19196,26.19189
		s26.19196-11.7265,26.19196-26.19189c0-0.57886-0.04956-1.14514-0.08655-1.71472
		C674.87671,563.08783,663.54498,572.57379,649.65851,572.57379z"/>
	
		<ellipse transform="matrix(0.96743 -0.25316 0.25316 0.96743 -111.27471 206.1862)" class="st23" cx="745.56085" cy="535.48431" rx="7.42141" ry="5.18607"/>
	
		<ellipse transform="matrix(0.96743 -0.25316 0.25316 0.96743 -114.65919 179.88338)" class="st23" cx="641.66107" cy="535.48431" rx="7.42141" ry="5.18607"/>
</g>
<path class="st24" d="M190.90814,875.97028v0.00006c0,7.31805,5.93245,13.25049,13.2505,13.25049h991.68268
	c7.31812,0,13.25049-5.93243,13.25049-13.25049v-0.00006c0-7.31799-5.93237-13.25049-13.25049-13.25049H204.15865
	C196.84059,862.71979,190.90814,868.65228,190.90814,875.97028z"/>
<g>
	<path class="st25" d="M1055.03357,649.00616c-13.0415,16.39984-20.65613,36.09576-20.65613,57.28857
		s7.61462,40.88873,20.65613,57.28857c13.0415-16.39984,20.65625-36.09576,20.65625-57.28857
		S1068.07507,665.40601,1055.03357,649.00616z"/>
	<g>
		<path class="st25" d="M1053.69556,762.20117c17.03564,3.99927,35.25586,3.0907,52.58093-3.70197
			c17.32507-6.7926,31.30762-18.5097,41.08557-33.02173c-17.03564-3.99927-35.25586-3.0907-52.58093,3.7019
			S1063.47351,747.68909,1053.69556,762.20117z"/>
		<path class="st25" d="M1056.37158,762.20117c-17.03564,3.99927-35.25586,3.0907-52.58093-3.70197
			c-17.32507-6.7926-31.30768-18.5097-41.08563-33.02173c17.03571-3.99927,35.25592-3.0907,52.58099,3.7019
			S1046.59363,747.68909,1056.37158,762.20117z"/>
	</g>
	<path class="st26" d="M1054.81885,763.58325c19.23816-3.89252,36.71143-13.41492,49.77917-28.59619
		c13.06787-15.18127,19.88428-33.87689,20.87085-53.4801c-19.23816,3.89258-36.71143,13.41498-49.77917,28.59619
		C1062.62183,725.28442,1055.80554,743.98004,1054.81885,763.58325z"/>
	<path class="st26" d="M1055.24829,763.58325c-19.23816-3.89252-36.71143-13.41492-49.77924-28.59619
		s-19.88416-33.87689-20.87079-53.4801c19.23816,3.89258,36.71136,13.41498,49.77917,28.59619
		C1047.44519,725.28442,1054.2616,743.98004,1055.24829,763.58325z"/>
	<path class="st27" d="M998.61951,771.95636l10.91882,90.76343h23.65747v-5.94281c0-2.1828,1.76965-3.95239,3.95239-3.95239
		h35.77063c2.18286,0,3.95251,1.76959,3.95251,3.95239v5.94281h23.65747l10.91882-90.76343H998.61951z"/>
	<path class="st28" d="M1113.26746,756.26093H996.79962c-6.03033,0-10.91888,4.88855-10.91888,10.91888
		s4.88855,10.91888,10.91888,10.91888h116.46783c6.0304,0,10.91895-4.88855,10.91895-10.91888
		S1119.29785,756.26093,1113.26746,756.26093z"/>
</g>
<g>
	<path class="st29" d="M965.67438,850.4361h-27.59937c-3.12012,0-5.64954-2.52936-5.64954-5.64954v-27.59937
		c0-3.12012,2.52942-5.64954,5.64954-5.64954h27.59937c3.12018,0,5.64954,2.52942,5.64954,5.64954v27.59937
		C971.32391,847.90674,968.79456,850.4361,965.67438,850.4361z"/>
	<circle class="st30" cx="951.87469" cy="830.98688" r="11.29907"/>
	<g>
		<circle class="st29" cx="956.38971" cy="830.98688" r="1.806"/>
		<circle class="st29" cx="947.35968" cy="830.98688" r="1.806"/>
	</g>
</g>
<g>
	<path class="st29" d="M912.32794,850.4361h-27.59937c-3.12012,0-5.64954-2.52936-5.64954-5.64954v-27.59937
		c0-3.12012,2.52942-5.64954,5.64954-5.64954h27.59937c3.12018,0,5.64954,2.52942,5.64954,5.64954v27.59937
		C917.97748,847.90674,915.44812,850.4361,912.32794,850.4361z"/>
	<circle class="st30" cx="898.52826" cy="830.98688" r="11.29907"/>
	<g>
		<circle class="st29" cx="903.04327" cy="830.98688" r="1.806"/>
		<circle class="st29" cx="894.01331" cy="830.98688" r="1.806"/>
	</g>
</g>
<g>
	<rect x="245.8576" y="725.02838" class="st31" width="252.04369" height="25.31823"/>
	<g>
		<path class="st32" d="M508.85873,697.2984H234.90016c-6.45226,0-11.68292,5.23065-11.68292,11.68292v4.36407
			c0,6.45233,5.23067,11.68298,11.68292,11.68298h273.95856c6.45224,0,11.68289-5.23065,11.68289-11.68298v-4.36407
			C520.54163,702.52905,515.31097,697.2984,508.85873,697.2984z"/>
		<path class="st33" d="M290.79547,711.16339h-42.81604c-2.49869,0-4.52426-2.02557-4.52426-4.52429l0,0
			c0-2.49866,2.02557-4.52423,4.52426-4.52423h42.81604c2.49869,0,4.52426,2.02557,4.52426,4.52423l0,0
			C295.31973,709.13782,293.29416,711.16339,290.79547,711.16339z"/>
		<path class="st33" d="M320.79709,711.16339h-10.03421c-2.49869,0-4.52426-2.02557-4.52426-4.52429l0,0
			c0-2.49866,2.02557-4.52423,4.52426-4.52423h10.03421c2.49869,0,4.52426,2.02557,4.52426,4.52423l0,0
			C325.32135,709.13782,323.29578,711.16339,320.79709,711.16339z"/>
	</g>
	<g>
		<rect x="475.48096" y="725.02832" class="st31" width="22.42035" height="137.6915"/>
		<rect x="245.8576" y="725.02832" class="st31" width="22.42035" height="137.6915"/>
	</g>
</g>
<g>
	<path class="st34" d="M333.42322,625.18665v-15.86243c0-2.29303-1.14288-4.43518-3.04752-5.71204l-9.94876-6.66968v-10.81866
		h-19.5314v10.81866l-9.94879,6.66968c-1.90463,1.27686-3.04752,3.41901-3.04752,5.71204v15.86243l2.72263,3.48511v13.94043
		l-2.72263,8.71277v41.42889c0,2.50989,2.03467,4.54456,4.54459,4.54456h36.43481c2.50992,0,4.54459-2.03467,4.54459-4.54456
		v-41.42889l-2.72263-8.71277v-13.94043L333.42322,625.18665z"/>
	<path class="st35" d="M333.42322,625.18665v-15.86243c0-2.29303-1.14291-4.43518-3.04755-5.7121l-9.94873-6.66962v-10.81866
		h-2.49207v10.81866l7.41,6.66962c1.41858,1.27692,2.26978,3.41907,2.26978,5.7121v15.86243l-2.0278,3.48511v13.94043
		l2.0278,8.71277v41.42883c0,2.50989-1.51538,4.54462-3.38483,4.54462h4.64886c2.50983,0,4.54453-2.03473,4.54453-4.54462v-41.42883
		l-2.72263-8.71277v-13.94043L333.42322,625.18665z"/>
	<path class="st36" d="M298.75394,577.28455v5.91687c0,1.61401,1.30841,2.92242,2.92242,2.92242h17.96976
		c1.61401,0,2.92242-1.30841,2.92242-2.92242v-5.91687c0-1.61401-1.30841-2.92242-2.92242-2.92242h-17.96976
		C300.06235,574.36212,298.75394,575.67053,298.75394,577.28455z"/>
	<rect x="307.39395" y="569.09821" class="st36" width="6.53457" height="6.53457"/>
	<path class="st37" d="M305.54248,570.35065L305.54248,570.35065c0,1.11279,0.90207,2.01483,2.01483,2.01483h6.20786
		c1.11273,0,2.0148-0.90204,2.0148-2.01483l0,0c0-1.11273-0.90207-2.01483-2.0148-2.01483h-6.20786
		C306.44455,568.33582,305.54248,569.23792,305.54248,570.35065z"/>
	<rect x="297.77374" y="625.40448" class="st38" width="25.77498" height="20.36609"/>
	<path class="st35" d="M329.84235,607.61584h-20.32983c-0.72174,0-1.30692,0.58514-1.30692,1.30688
		c0,0.72186,0.58517,1.30695,1.30692,1.30695h20.32983c0.72174,0,1.30692-0.58508,1.30692-1.30695
		C331.14926,608.20099,330.56409,607.61584,329.84235,607.61584z"/>
	<path class="st35" d="M329.84235,617.34509h-20.32983c-0.72174,0-1.30692,0.58514-1.30692,1.30688
		c0,0.72186,0.58517,1.30695,1.30692,1.30695h20.32983c0.72174,0,1.30692-0.58508,1.30692-1.30695
		C331.14926,617.93024,330.56409,617.34509,329.84235,617.34509z"/>
	<path class="st35" d="M329.84235,653.06744h-20.32983c-0.72174,0-1.30692,0.58514-1.30692,1.30688
		c0,0.72186,0.58517,1.30695,1.30692,1.30695h20.32983c0.72174,0,1.30692-0.58508,1.30692-1.30695
		C331.14926,653.65259,330.56409,653.06744,329.84235,653.06744z"/>
	<path class="st35" d="M303.29181,653.06744h-4.57446c-0.72174,0-1.30692,0.58514-1.30692,1.30688
		c0,0.72186,0.58517,1.30695,1.30692,1.30695h4.57446c0.72174,0,1.30692-0.58508,1.30692-1.30695
		C304.59872,653.65259,304.01355,653.06744,303.29181,653.06744z"/>
	<path class="st35" d="M329.84235,667.15308h-20.32983c-0.72174,0-1.30692,0.58514-1.30692,1.30688
		c0,0.72186,0.58517,1.30695,1.30692,1.30695h20.32983c0.72174,0,1.30692-0.58508,1.30692-1.30695
		C331.14926,667.73822,330.56409,667.15308,329.84235,667.15308z"/>
	<path class="st35" d="M301.96149,667.15308h-9.87451c-0.72174,0-1.30692,0.58514-1.30692,1.30688
		c0,0.72186,0.58517,1.30695,1.30692,1.30695h9.87451c0.72174,0,1.30692-0.58508,1.30692-1.30695
		C303.2684,667.73822,302.68323,667.15308,301.96149,667.15308z"/>
	<path class="st35" d="M329.84235,681.23871h-20.32983c-0.72174,0-1.30692,0.58514-1.30692,1.30688
		c0,0.72186,0.58517,1.30695,1.30692,1.30695h20.32983c0.72174,0,1.30692-0.58508,1.30692-1.30695
		C331.14926,681.82385,330.56409,681.23871,329.84235,681.23871z"/>
</g>
<g>
	<g>
		<path class="st17" d="M377.25415,697.2984h57.39804c4.16956,0,7.54968-3.38013,7.54968-7.54968v-16.01544
			c0-4.16956-3.38013-7.54968-7.54968-7.54968h-57.39804c-4.16956,0-7.54968,3.38013-7.54968,7.54968v16.01544
			C369.70447,693.91827,373.08459,697.2984,377.25415,697.2984z"/>
		<path class="st39" d="M377.25415,697.2984h6.5899c4.16956,0,7.54965-3.38013,7.54965-7.54968v-16.01544
			c0-4.16956-3.3801-7.54968-7.54965-7.54968h-6.5899c-4.16956,0-7.54968,3.38013-7.54968,7.54968v16.01544
			C369.70447,693.91827,373.08459,697.2984,377.25415,697.2984z"/>
		<path class="st15" d="M475.48096,767.27173h-66.5582c-5.32755,0-9.64636-4.31885-9.64636-9.64636v-91.53778h76.20456
			c5.32755,0,9.64636,4.31879,9.64636,9.6463v81.89148C485.12732,762.95288,480.8085,767.27173,475.48096,767.27173z"/>
		<path class="st15" d="M391.72672,666.18359c4.16956,0,7.54971,3.38007,7.54971,7.54968v2.22858h10.57764v-9.77826H391.72672z"/>
	</g>
	<rect x="399.2764" y="752.73505" class="st14" width="85.85093" height="4.8903"/>
	<rect x="399.2764" y="739.08649" class="st14" width="85.85093" height="4.8903"/>
</g>
</svg>
